<svg xmlns="http://www.w3.org/2000/svg" version="1.1" xmlns:xlink="http://www.w3.org/1999/xlink" xmlns:svgjs="http://svgjs.dev/svgjs" width="2440" height="1280" preserveAspectRatio="none" viewBox="0 0 2440 1280"><g mask="url(&quot;#SvgjsMask1233&quot;)" fill="none"><path d="M12.82 -70.16L77.77 -32.66L77.77 42.34L12.82 79.84L-52.13 42.34L-52.13 -32.66zM77.77 717.34L142.73 754.84L142.73 829.84L77.77 867.34L12.82 829.84L12.82 754.84zM77.77 942.34L142.73 979.84L142.73 1054.84L77.77 1092.34L12.82 1054.84L12.82 979.84zM77.77 1167.34L142.73 1204.84L142.73 1279.84L77.77 1317.34L12.82 1279.84L12.82 1204.84zM142.73 379.84L207.68 417.34L207.68 492.34L142.73 529.84L77.77 492.34L77.77 417.34zM207.68 492.34L272.63 529.84L272.63 604.84L207.68 642.34L142.73 604.84L142.73 529.84zM272.63 -70.16L337.59 -32.66L337.59 42.34L272.63 79.84L207.68 42.34L207.68 -32.66zM272.63 379.84L337.59 417.34L337.59 492.34L272.63 529.84L207.68 492.34L207.68 417.34zM272.63 1054.84L337.59 1092.34L337.59 1167.34L272.63 1204.84L207.68 1167.34L207.68 1092.34zM402.54 -70.16L467.5 -32.66L467.5 42.34L402.54 79.84L337.59 42.34L337.59 -32.66zM467.5 267.34L532.45 304.84L532.45 379.84L467.5 417.34L402.54 379.84L402.54 304.84zM402.54 829.84L467.5 867.34L467.5 942.34L402.54 979.84L337.59 942.34L337.59 867.34zM467.5 942.34L532.45 979.84L532.45 1054.84L467.5 1092.34L402.54 1054.84L402.54 979.84zM467.5 1167.34L532.45 1204.84L532.45 1279.84L467.5 1317.34L402.54 1279.84L402.54 1204.84zM532.45 -70.16L597.4 -32.66L597.4 42.34L532.45 79.84L467.5 42.34L467.5 -32.66zM597.4 42.34L662.36 79.84L662.36 154.84L597.4 192.34L532.45 154.84L532.45 79.84zM597.4 1167.34L662.36 1204.84L662.36 1279.84L597.4 1317.34L532.45 1279.84L532.45 1204.84zM662.36 -70.16L727.31 -32.66L727.31 42.34L662.36 79.84L597.4 42.34L597.4 -32.66zM662.36 379.84L727.31 417.34L727.31 492.34L662.36 529.84L597.4 492.34L597.4 417.34zM727.31 717.34L792.27 754.84L792.27 829.84L727.31 867.34L662.36 829.84L662.36 754.84zM792.26 604.84L857.22 642.34L857.22 717.34L792.26 754.84L727.31 717.34L727.31 642.34zM857.22 942.34L922.17 979.84L922.17 1054.84L857.22 1092.34L792.26 1054.84L792.26 979.84zM792.26 1054.84L857.22 1092.34L857.22 1167.34L792.26 1204.84L727.31 1167.34L727.31 1092.34zM922.17 379.84L987.13 417.34L987.13 492.34L922.17 529.84L857.22 492.34L857.22 417.34zM987.13 942.34L1052.08 979.84L1052.08 1054.84L987.13 1092.34L922.17 1054.84L922.17 979.84zM987.13 1167.34L1052.08 1204.84L1052.08 1279.84L987.13 1317.34L922.17 1279.84L922.17 1204.84zM1117.03 267.34L1181.99 304.84L1181.99 379.84L1117.03 417.34L1052.08 379.84L1052.08 304.84zM1052.08 379.84L1117.03 417.34L1117.03 492.34L1052.08 529.84L987.13 492.34L987.13 417.34zM1246.94 492.34L1311.89 529.84L1311.89 604.84L1246.94 642.34L1181.99 604.84L1181.99 529.84zM1181.99 604.84L1246.94 642.34L1246.94 717.34L1181.99 754.84L1117.03 717.34L1117.03 642.34zM1246.94 1167.34L1311.89 1204.84L1311.89 1279.84L1246.94 1317.34L1181.99 1279.84L1181.99 1204.84zM1311.89 604.84L1376.85 642.34L1376.85 717.34L1311.89 754.84L1246.94 717.34L1246.94 642.34zM1376.85 942.34L1441.8 979.84L1441.8 1054.84L1376.85 1092.34L1311.89 1054.84L1311.89 979.84zM1376.85 1167.34L1441.8 1204.84L1441.8 1279.84L1376.85 1317.34L1311.89 1279.84L1311.89 1204.84zM1441.8 604.84L1506.76 642.34L1506.76 717.34L1441.8 754.84L1376.85 717.34L1376.85 642.34zM1441.8 829.84L1506.76 867.34L1506.76 942.34L1441.8 979.84L1376.85 942.34L1376.85 867.34zM1506.76 1167.34L1571.71 1204.84L1571.71 1279.84L1506.76 1317.34L1441.8 1279.84L1441.8 1204.84zM1701.62 379.84L1766.57 417.34L1766.57 492.34L1701.62 529.84L1636.66 492.34L1636.66 417.34zM1766.57 717.34L1831.52 754.84L1831.52 829.84L1766.57 867.34L1701.62 829.84L1701.62 754.84zM1701.62 829.84L1766.57 867.34L1766.57 942.34L1701.62 979.84L1636.66 942.34L1636.66 867.34zM1766.57 942.34L1831.52 979.84L1831.52 1054.84L1766.57 1092.34L1701.62 1054.84L1701.62 979.84zM1701.62 1054.84L1766.57 1092.34L1766.57 1167.34L1701.62 1204.84L1636.66 1167.34L1636.66 1092.34zM1766.57 1167.34L1831.52 1204.84L1831.52 1279.84L1766.57 1317.34L1701.62 1279.84L1701.62 1204.84zM1831.52 -70.16L1896.48 -32.66L1896.48 42.34L1831.52 79.84L1766.57 42.34L1766.57 -32.66zM1896.48 267.34L1961.43 304.84L1961.43 379.84L1896.48 417.34L1831.52 379.84L1831.52 304.84zM1831.52 604.84L1896.48 642.34L1896.48 717.34L1831.52 754.84L1766.57 717.34L1766.57 642.34zM2026.39 267.34L2091.34 304.84L2091.34 379.84L2026.39 417.34L1961.43 379.84L1961.43 304.84zM1961.43 604.84L2026.39 642.34L2026.39 717.34L1961.43 754.84L1896.48 717.34L1896.48 642.34zM2026.39 942.34L2091.34 979.84L2091.34 1054.84L2026.39 1092.34L1961.43 1054.84L1961.43 979.84zM1961.43 1054.84L2026.39 1092.34L2026.39 1167.34L1961.43 1204.84L1896.48 1167.34L1896.48 1092.34zM2026.39 1167.34L2091.34 1204.84L2091.34 1279.84L2026.39 1317.34L1961.43 1279.84L1961.43 1204.84zM2156.29 717.34L2221.25 754.84L2221.25 829.84L2156.29 867.34L2091.34 829.84L2091.34 754.84zM2156.29 942.34L2221.25 979.84L2221.25 1054.84L2156.29 1092.34L2091.34 1054.84L2091.34 979.84zM2221.25 -70.16L2286.2 -32.66L2286.2 42.34L2221.25 79.84L2156.29 42.34L2156.29 -32.66zM2286.2 42.34L2351.16 79.84L2351.16 154.84L2286.2 192.34L2221.25 154.84L2221.25 79.84zM2221.25 379.84L2286.2 417.34L2286.2 492.34L2221.25 529.84L2156.29 492.34L2156.29 417.34zM2221.25 829.84L2286.2 867.34L2286.2 942.34L2221.25 979.84L2156.29 942.34L2156.29 867.34zM2351.16 -70.16L2416.11 -32.66L2416.11 42.34L2351.16 79.84L2286.2 42.34L2286.2 -32.66zM2351.16 604.84L2416.11 642.34L2416.11 717.34L2351.16 754.84L2286.2 717.34L2286.2 642.34zM2351.16 829.84L2416.11 867.34L2416.11 942.34L2351.16 979.84L2286.2 942.34L2286.2 867.34z" stroke="rgba(144, 154, 2, 1)" stroke-width="2"></path><path d="M5.32 -70.16 a7.5 7.5 0 1 0 15 0 a7.5 7.5 0 1 0 -15 0zM70.27 -32.66 a7.5 7.5 0 1 0 15 0 a7.5 7.5 0 1 0 -15 0zM70.27 42.34 a7.5 7.5 0 1 0 15 0 a7.5 7.5 0 1 0 -15 0zM5.32 79.84 a7.5 7.5 0 1 0 15 0 a7.5 7.5 0 1 0 -15 0zM-59.63 42.34 a7.5 7.5 0 1 0 15 0 a7.5 7.5 0 1 0 -15 0zM-59.63 -32.66 a7.5 7.5 0 1 0 15 0 a7.5 7.5 0 1 0 -15 0zM70.27 717.34 a7.5 7.5 0 1 0 15 0 a7.5 7.5 0 1 0 -15 0zM135.23 754.84 a7.5 7.5 0 1 0 15 0 a7.5 7.5 0 1 0 -15 0zM135.23 829.84 a7.5 7.5 0 1 0 15 0 a7.5 7.5 0 1 0 -15 0zM70.27 867.34 a7.5 7.5 0 1 0 15 0 a7.5 7.5 0 1 0 -15 0zM5.32 829.84 a7.5 7.5 0 1 0 15 0 a7.5 7.5 0 1 0 -15 0zM5.32 754.84 a7.5 7.5 0 1 0 15 0 a7.5 7.5 0 1 0 -15 0zM70.27 942.34 a7.5 7.5 0 1 0 15 0 a7.5 7.5 0 1 0 -15 0zM135.23 979.84 a7.5 7.5 0 1 0 15 0 a7.5 7.5 0 1 0 -15 0zM135.23 1054.84 a7.5 7.5 0 1 0 15 0 a7.5 7.5 0 1 0 -15 0zM70.27 1092.34 a7.5 7.5 0 1 0 15 0 a7.5 7.5 0 1 0 -15 0zM5.32 1054.84 a7.5 7.5 0 1 0 15 0 a7.5 7.5 0 1 0 -15 0zM5.32 979.84 a7.5 7.5 0 1 0 15 0 a7.5 7.5 0 1 0 -15 0zM70.27 1167.34 a7.5 7.5 0 1 0 15 0 a7.5 7.5 0 1 0 -15 0zM135.23 1204.84 a7.5 7.5 0 1 0 15 0 a7.5 7.5 0 1 0 -15 0zM135.23 1279.84 a7.5 7.5 0 1 0 15 0 a7.5 7.5 0 1 0 -15 0zM70.27 1317.34 a7.5 7.5 0 1 0 15 0 a7.5 7.5 0 1 0 -15 0zM5.32 1279.84 a7.5 7.5 0 1 0 15 0 a7.5 7.5 0 1 0 -15 0zM5.32 1204.84 a7.5 7.5 0 1 0 15 0 a7.5 7.5 0 1 0 -15 0zM135.23 379.84 a7.5 7.5 0 1 0 15 0 a7.5 7.5 0 1 0 -15 0zM200.18 417.34 a7.5 7.5 0 1 0 15 0 a7.5 7.5 0 1 0 -15 0zM200.18 492.34 a7.5 7.5 0 1 0 15 0 a7.5 7.5 0 1 0 -15 0zM135.23 529.84 a7.5 7.5 0 1 0 15 0 a7.5 7.5 0 1 0 -15 0zM70.27 492.34 a7.5 7.5 0 1 0 15 0 a7.5 7.5 0 1 0 -15 0zM70.27 417.34 a7.5 7.5 0 1 0 15 0 a7.5 7.5 0 1 0 -15 0zM265.13 529.84 a7.5 7.5 0 1 0 15 0 a7.5 7.5 0 1 0 -15 0zM265.13 604.84 a7.5 7.5 0 1 0 15 0 a7.5 7.5 0 1 0 -15 0zM200.18 642.34 a7.5 7.5 0 1 0 15 0 a7.5 7.5 0 1 0 -15 0zM135.23 604.84 a7.5 7.5 0 1 0 15 0 a7.5 7.5 0 1 0 -15 0zM265.13 -70.16 a7.5 7.5 0 1 0 15 0 a7.5 7.5 0 1 0 -15 0zM330.09 -32.66 a7.5 7.5 0 1 0 15 0 a7.5 7.5 0 1 0 -15 0zM330.09 42.34 a7.5 7.5 0 1 0 15 0 a7.5 7.5 0 1 0 -15 0zM265.13 79.84 a7.5 7.5 0 1 0 15 0 a7.5 7.5 0 1 0 -15 0zM200.18 42.34 a7.5 7.5 0 1 0 15 0 a7.5 7.5 0 1 0 -15 0zM200.18 -32.66 a7.5 7.5 0 1 0 15 0 a7.5 7.5 0 1 0 -15 0zM265.13 379.84 a7.5 7.5 0 1 0 15 0 a7.5 7.5 0 1 0 -15 0zM330.09 417.34 a7.5 7.5 0 1 0 15 0 a7.5 7.5 0 1 0 -15 0zM330.09 492.34 a7.5 7.5 0 1 0 15 0 a7.5 7.5 0 1 0 -15 0zM265.13 1054.84 a7.5 7.5 0 1 0 15 0 a7.5 7.5 0 1 0 -15 0zM330.09 1092.34 a7.5 7.5 0 1 0 15 0 a7.5 7.5 0 1 0 -15 0zM330.09 1167.34 a7.5 7.5 0 1 0 15 0 a7.5 7.5 0 1 0 -15 0zM265.13 1204.84 a7.5 7.5 0 1 0 15 0 a7.5 7.5 0 1 0 -15 0zM200.18 1167.34 a7.5 7.5 0 1 0 15 0 a7.5 7.5 0 1 0 -15 0zM200.18 1092.34 a7.5 7.5 0 1 0 15 0 a7.5 7.5 0 1 0 -15 0zM395.04 -70.16 a7.5 7.5 0 1 0 15 0 a7.5 7.5 0 1 0 -15 0zM460 -32.66 a7.5 7.5 0 1 0 15 0 a7.5 7.5 0 1 0 -15 0zM460 42.34 a7.5 7.5 0 1 0 15 0 a7.5 7.5 0 1 0 -15 0zM395.04 79.84 a7.5 7.5 0 1 0 15 0 a7.5 7.5 0 1 0 -15 0zM460 267.34 a7.5 7.5 0 1 0 15 0 a7.5 7.5 0 1 0 -15 0zM524.95 304.84 a7.5 7.5 0 1 0 15 0 a7.5 7.5 0 1 0 -15 0zM524.95 379.84 a7.5 7.5 0 1 0 15 0 a7.5 7.5 0 1 0 -15 0zM460 417.34 a7.5 7.5 0 1 0 15 0 a7.5 7.5 0 1 0 -15 0zM395.04 379.84 a7.5 7.5 0 1 0 15 0 a7.5 7.5 0 1 0 -15 0zM395.04 304.84 a7.5 7.5 0 1 0 15 0 a7.5 7.5 0 1 0 -15 0zM395.04 829.84 a7.5 7.5 0 1 0 15 0 a7.5 7.5 0 1 0 -15 0zM460 867.34 a7.5 7.5 0 1 0 15 0 a7.5 7.5 0 1 0 -15 0zM460 942.34 a7.5 7.5 0 1 0 15 0 a7.5 7.5 0 1 0 -15 0zM395.04 979.84 a7.5 7.5 0 1 0 15 0 a7.5 7.5 0 1 0 -15 0zM330.09 942.34 a7.5 7.5 0 1 0 15 0 a7.5 7.5 0 1 0 -15 0zM330.09 867.34 a7.5 7.5 0 1 0 15 0 a7.5 7.5 0 1 0 -15 0zM524.95 979.84 a7.5 7.5 0 1 0 15 0 a7.5 7.5 0 1 0 -15 0zM524.95 1054.84 a7.5 7.5 0 1 0 15 0 a7.5 7.5 0 1 0 -15 0zM460 1092.34 a7.5 7.5 0 1 0 15 0 a7.5 7.5 0 1 0 -15 0zM395.04 1054.84 a7.5 7.5 0 1 0 15 0 a7.5 7.5 0 1 0 -15 0zM460 1167.34 a7.5 7.5 0 1 0 15 0 a7.5 7.5 0 1 0 -15 0zM524.95 1204.84 a7.5 7.5 0 1 0 15 0 a7.5 7.5 0 1 0 -15 0zM524.95 1279.84 a7.5 7.5 0 1 0 15 0 a7.5 7.5 0 1 0 -15 0zM460 1317.34 a7.5 7.5 0 1 0 15 0 a7.5 7.5 0 1 0 -15 0zM395.04 1279.84 a7.5 7.5 0 1 0 15 0 a7.5 7.5 0 1 0 -15 0zM395.04 1204.84 a7.5 7.5 0 1 0 15 0 a7.5 7.5 0 1 0 -15 0zM524.95 -70.16 a7.5 7.5 0 1 0 15 0 a7.5 7.5 0 1 0 -15 0zM589.9 -32.66 a7.5 7.5 0 1 0 15 0 a7.5 7.5 0 1 0 -15 0zM589.9 42.34 a7.5 7.5 0 1 0 15 0 a7.5 7.5 0 1 0 -15 0zM524.95 79.84 a7.5 7.5 0 1 0 15 0 a7.5 7.5 0 1 0 -15 0zM654.86 79.84 a7.5 7.5 0 1 0 15 0 a7.5 7.5 0 1 0 -15 0zM654.86 154.84 a7.5 7.5 0 1 0 15 0 a7.5 7.5 0 1 0 -15 0zM589.9 192.34 a7.5 7.5 0 1 0 15 0 a7.5 7.5 0 1 0 -15 0zM524.95 154.84 a7.5 7.5 0 1 0 15 0 a7.5 7.5 0 1 0 -15 0zM589.9 1167.34 a7.5 7.5 0 1 0 15 0 a7.5 7.5 0 1 0 -15 0zM654.86 1204.84 a7.5 7.5 0 1 0 15 0 a7.5 7.5 0 1 0 -15 0zM654.86 1279.84 a7.5 7.5 0 1 0 15 0 a7.5 7.5 0 1 0 -15 0zM589.9 1317.34 a7.5 7.5 0 1 0 15 0 a7.5 7.5 0 1 0 -15 0zM654.86 -70.16 a7.5 7.5 0 1 0 15 0 a7.5 7.5 0 1 0 -15 0zM719.81 -32.66 a7.5 7.5 0 1 0 15 0 a7.5 7.5 0 1 0 -15 0zM719.81 42.34 a7.5 7.5 0 1 0 15 0 a7.5 7.5 0 1 0 -15 0zM654.86 379.84 a7.5 7.5 0 1 0 15 0 a7.5 7.5 0 1 0 -15 0zM719.81 417.34 a7.5 7.5 0 1 0 15 0 a7.5 7.5 0 1 0 -15 0zM719.81 492.34 a7.5 7.5 0 1 0 15 0 a7.5 7.5 0 1 0 -15 0zM654.86 529.84 a7.5 7.5 0 1 0 15 0 a7.5 7.5 0 1 0 -15 0zM589.9 492.34 a7.5 7.5 0 1 0 15 0 a7.5 7.5 0 1 0 -15 0zM589.9 417.34 a7.5 7.5 0 1 0 15 0 a7.5 7.5 0 1 0 -15 0zM719.81 717.34 a7.5 7.5 0 1 0 15 0 a7.5 7.5 0 1 0 -15 0zM784.77 754.84 a7.5 7.5 0 1 0 15 0 a7.5 7.5 0 1 0 -15 0zM784.77 829.84 a7.5 7.5 0 1 0 15 0 a7.5 7.5 0 1 0 -15 0zM719.81 867.34 a7.5 7.5 0 1 0 15 0 a7.5 7.5 0 1 0 -15 0zM654.86 829.84 a7.5 7.5 0 1 0 15 0 a7.5 7.5 0 1 0 -15 0zM654.86 754.84 a7.5 7.5 0 1 0 15 0 a7.5 7.5 0 1 0 -15 0zM784.76 604.84 a7.5 7.5 0 1 0 15 0 a7.5 7.5 0 1 0 -15 0zM849.72 642.34 a7.5 7.5 0 1 0 15 0 a7.5 7.5 0 1 0 -15 0zM849.72 717.34 a7.5 7.5 0 1 0 15 0 a7.5 7.5 0 1 0 -15 0zM784.76 754.84 a7.5 7.5 0 1 0 15 0 a7.5 7.5 0 1 0 -15 0zM719.81 642.34 a7.5 7.5 0 1 0 15 0 a7.5 7.5 0 1 0 -15 0zM849.72 942.34 a7.5 7.5 0 1 0 15 0 a7.5 7.5 0 1 0 -15 0zM914.67 979.84 a7.5 7.5 0 1 0 15 0 a7.5 7.5 0 1 0 -15 0zM914.67 1054.84 a7.5 7.5 0 1 0 15 0 a7.5 7.5 0 1 0 -15 0zM849.72 1092.34 a7.5 7.5 0 1 0 15 0 a7.5 7.5 0 1 0 -15 0zM784.76 1054.84 a7.5 7.5 0 1 0 15 0 a7.5 7.5 0 1 0 -15 0zM784.76 979.84 a7.5 7.5 0 1 0 15 0 a7.5 7.5 0 1 0 -15 0zM849.72 1167.34 a7.5 7.5 0 1 0 15 0 a7.5 7.5 0 1 0 -15 0zM784.76 1204.84 a7.5 7.5 0 1 0 15 0 a7.5 7.5 0 1 0 -15 0zM719.81 1167.34 a7.5 7.5 0 1 0 15 0 a7.5 7.5 0 1 0 -15 0zM719.81 1092.34 a7.5 7.5 0 1 0 15 0 a7.5 7.5 0 1 0 -15 0zM914.67 379.84 a7.5 7.5 0 1 0 15 0 a7.5 7.5 0 1 0 -15 0zM979.63 417.34 a7.5 7.5 0 1 0 15 0 a7.5 7.5 0 1 0 -15 0zM979.63 492.34 a7.5 7.5 0 1 0 15 0 a7.5 7.5 0 1 0 -15 0zM914.67 529.84 a7.5 7.5 0 1 0 15 0 a7.5 7.5 0 1 0 -15 0zM849.72 492.34 a7.5 7.5 0 1 0 15 0 a7.5 7.5 0 1 0 -15 0zM849.72 417.34 a7.5 7.5 0 1 0 15 0 a7.5 7.5 0 1 0 -15 0zM979.63 942.34 a7.5 7.5 0 1 0 15 0 a7.5 7.5 0 1 0 -15 0zM1044.58 979.84 a7.5 7.5 0 1 0 15 0 a7.5 7.5 0 1 0 -15 0zM1044.58 1054.84 a7.5 7.5 0 1 0 15 0 a7.5 7.5 0 1 0 -15 0zM979.63 1092.34 a7.5 7.5 0 1 0 15 0 a7.5 7.5 0 1 0 -15 0zM979.63 1167.34 a7.5 7.5 0 1 0 15 0 a7.5 7.5 0 1 0 -15 0zM1044.58 1204.84 a7.5 7.5 0 1 0 15 0 a7.5 7.5 0 1 0 -15 0zM1044.58 1279.84 a7.5 7.5 0 1 0 15 0 a7.5 7.5 0 1 0 -15 0zM979.63 1317.34 a7.5 7.5 0 1 0 15 0 a7.5 7.5 0 1 0 -15 0zM914.67 1279.84 a7.5 7.5 0 1 0 15 0 a7.5 7.5 0 1 0 -15 0zM914.67 1204.84 a7.5 7.5 0 1 0 15 0 a7.5 7.5 0 1 0 -15 0zM1109.53 267.34 a7.5 7.5 0 1 0 15 0 a7.5 7.5 0 1 0 -15 0zM1174.49 304.84 a7.5 7.5 0 1 0 15 0 a7.5 7.5 0 1 0 -15 0zM1174.49 379.84 a7.5 7.5 0 1 0 15 0 a7.5 7.5 0 1 0 -15 0zM1109.53 417.34 a7.5 7.5 0 1 0 15 0 a7.5 7.5 0 1 0 -15 0zM1044.58 379.84 a7.5 7.5 0 1 0 15 0 a7.5 7.5 0 1 0 -15 0zM1044.58 304.84 a7.5 7.5 0 1 0 15 0 a7.5 7.5 0 1 0 -15 0zM1109.53 492.34 a7.5 7.5 0 1 0 15 0 a7.5 7.5 0 1 0 -15 0zM1044.58 529.84 a7.5 7.5 0 1 0 15 0 a7.5 7.5 0 1 0 -15 0zM1239.44 492.34 a7.5 7.5 0 1 0 15 0 a7.5 7.5 0 1 0 -15 0zM1304.39 529.84 a7.5 7.5 0 1 0 15 0 a7.5 7.5 0 1 0 -15 0zM1304.39 604.84 a7.5 7.5 0 1 0 15 0 a7.5 7.5 0 1 0 -15 0zM1239.44 642.34 a7.5 7.5 0 1 0 15 0 a7.5 7.5 0 1 0 -15 0zM1174.49 604.84 a7.5 7.5 0 1 0 15 0 a7.5 7.5 0 1 0 -15 0zM1174.49 529.84 a7.5 7.5 0 1 0 15 0 a7.5 7.5 0 1 0 -15 0zM1239.44 717.34 a7.5 7.5 0 1 0 15 0 a7.5 7.5 0 1 0 -15 0zM1174.49 754.84 a7.5 7.5 0 1 0 15 0 a7.5 7.5 0 1 0 -15 0zM1109.53 717.34 a7.5 7.5 0 1 0 15 0 a7.5 7.5 0 1 0 -15 0zM1109.53 642.34 a7.5 7.5 0 1 0 15 0 a7.5 7.5 0 1 0 -15 0zM1239.44 1167.34 a7.5 7.5 0 1 0 15 0 a7.5 7.5 0 1 0 -15 0zM1304.39 1204.84 a7.5 7.5 0 1 0 15 0 a7.5 7.5 0 1 0 -15 0zM1304.39 1279.84 a7.5 7.5 0 1 0 15 0 a7.5 7.5 0 1 0 -15 0zM1239.44 1317.34 a7.5 7.5 0 1 0 15 0 a7.5 7.5 0 1 0 -15 0zM1174.49 1279.84 a7.5 7.5 0 1 0 15 0 a7.5 7.5 0 1 0 -15 0zM1174.49 1204.84 a7.5 7.5 0 1 0 15 0 a7.5 7.5 0 1 0 -15 0zM1369.35 642.34 a7.5 7.5 0 1 0 15 0 a7.5 7.5 0 1 0 -15 0zM1369.35 717.34 a7.5 7.5 0 1 0 15 0 a7.5 7.5 0 1 0 -15 0zM1304.39 754.84 a7.5 7.5 0 1 0 15 0 a7.5 7.5 0 1 0 -15 0zM1369.35 942.34 a7.5 7.5 0 1 0 15 0 a7.5 7.5 0 1 0 -15 0zM1434.3 979.84 a7.5 7.5 0 1 0 15 0 a7.5 7.5 0 1 0 -15 0zM1434.3 1054.84 a7.5 7.5 0 1 0 15 0 a7.5 7.5 0 1 0 -15 0zM1369.35 1092.34 a7.5 7.5 0 1 0 15 0 a7.5 7.5 0 1 0 -15 0zM1304.39 1054.84 a7.5 7.5 0 1 0 15 0 a7.5 7.5 0 1 0 -15 0zM1304.39 979.84 a7.5 7.5 0 1 0 15 0 a7.5 7.5 0 1 0 -15 0zM1369.35 1167.34 a7.5 7.5 0 1 0 15 0 a7.5 7.5 0 1 0 -15 0zM1434.3 1204.84 a7.5 7.5 0 1 0 15 0 a7.5 7.5 0 1 0 -15 0zM1434.3 1279.84 a7.5 7.5 0 1 0 15 0 a7.5 7.5 0 1 0 -15 0zM1369.35 1317.34 a7.5 7.5 0 1 0 15 0 a7.5 7.5 0 1 0 -15 0zM1434.3 604.84 a7.5 7.5 0 1 0 15 0 a7.5 7.5 0 1 0 -15 0zM1499.26 642.34 a7.5 7.5 0 1 0 15 0 a7.5 7.5 0 1 0 -15 0zM1499.26 717.34 a7.5 7.5 0 1 0 15 0 a7.5 7.5 0 1 0 -15 0zM1434.3 754.84 a7.5 7.5 0 1 0 15 0 a7.5 7.5 0 1 0 -15 0zM1434.3 829.84 a7.5 7.5 0 1 0 15 0 a7.5 7.5 0 1 0 -15 0zM1499.26 867.34 a7.5 7.5 0 1 0 15 0 a7.5 7.5 0 1 0 -15 0zM1499.26 942.34 a7.5 7.5 0 1 0 15 0 a7.5 7.5 0 1 0 -15 0zM1369.35 867.34 a7.5 7.5 0 1 0 15 0 a7.5 7.5 0 1 0 -15 0zM1499.26 1167.34 a7.5 7.5 0 1 0 15 0 a7.5 7.5 0 1 0 -15 0zM1564.21 1204.84 a7.5 7.5 0 1 0 15 0 a7.5 7.5 0 1 0 -15 0zM1564.21 1279.84 a7.5 7.5 0 1 0 15 0 a7.5 7.5 0 1 0 -15 0zM1499.26 1317.34 a7.5 7.5 0 1 0 15 0 a7.5 7.5 0 1 0 -15 0zM1694.12 379.84 a7.5 7.5 0 1 0 15 0 a7.5 7.5 0 1 0 -15 0zM1759.07 417.34 a7.5 7.5 0 1 0 15 0 a7.5 7.5 0 1 0 -15 0zM1759.07 492.34 a7.5 7.5 0 1 0 15 0 a7.5 7.5 0 1 0 -15 0zM1694.12 529.84 a7.5 7.5 0 1 0 15 0 a7.5 7.5 0 1 0 -15 0zM1629.16 492.34 a7.5 7.5 0 1 0 15 0 a7.5 7.5 0 1 0 -15 0zM1629.16 417.34 a7.5 7.5 0 1 0 15 0 a7.5 7.5 0 1 0 -15 0zM1759.07 717.34 a7.5 7.5 0 1 0 15 0 a7.5 7.5 0 1 0 -15 0zM1824.02 754.84 a7.5 7.5 0 1 0 15 0 a7.5 7.5 0 1 0 -15 0zM1824.02 829.84 a7.5 7.5 0 1 0 15 0 a7.5 7.5 0 1 0 -15 0zM1759.07 867.34 a7.5 7.5 0 1 0 15 0 a7.5 7.5 0 1 0 -15 0zM1694.12 829.84 a7.5 7.5 0 1 0 15 0 a7.5 7.5 0 1 0 -15 0zM1694.12 754.84 a7.5 7.5 0 1 0 15 0 a7.5 7.5 0 1 0 -15 0zM1759.07 942.34 a7.5 7.5 0 1 0 15 0 a7.5 7.5 0 1 0 -15 0zM1694.12 979.84 a7.5 7.5 0 1 0 15 0 a7.5 7.5 0 1 0 -15 0zM1629.16 942.34 a7.5 7.5 0 1 0 15 0 a7.5 7.5 0 1 0 -15 0zM1629.16 867.34 a7.5 7.5 0 1 0 15 0 a7.5 7.5 0 1 0 -15 0zM1824.02 979.84 a7.5 7.5 0 1 0 15 0 a7.5 7.5 0 1 0 -15 0zM1824.02 1054.84 a7.5 7.5 0 1 0 15 0 a7.5 7.5 0 1 0 -15 0zM1759.07 1092.34 a7.5 7.5 0 1 0 15 0 a7.5 7.5 0 1 0 -15 0zM1694.12 1054.84 a7.5 7.5 0 1 0 15 0 a7.5 7.5 0 1 0 -15 0zM1759.07 1167.34 a7.5 7.5 0 1 0 15 0 a7.5 7.5 0 1 0 -15 0zM1694.12 1204.84 a7.5 7.5 0 1 0 15 0 a7.5 7.5 0 1 0 -15 0zM1629.16 1167.34 a7.5 7.5 0 1 0 15 0 a7.5 7.5 0 1 0 -15 0zM1629.16 1092.34 a7.5 7.5 0 1 0 15 0 a7.5 7.5 0 1 0 -15 0zM1824.02 1204.84 a7.5 7.5 0 1 0 15 0 a7.5 7.5 0 1 0 -15 0zM1824.02 1279.84 a7.5 7.5 0 1 0 15 0 a7.5 7.5 0 1 0 -15 0zM1759.07 1317.34 a7.5 7.5 0 1 0 15 0 a7.5 7.5 0 1 0 -15 0zM1694.12 1279.84 a7.5 7.5 0 1 0 15 0 a7.5 7.5 0 1 0 -15 0zM1824.02 -70.16 a7.5 7.5 0 1 0 15 0 a7.5 7.5 0 1 0 -15 0zM1888.98 -32.66 a7.5 7.5 0 1 0 15 0 a7.5 7.5 0 1 0 -15 0zM1888.98 42.34 a7.5 7.5 0 1 0 15 0 a7.5 7.5 0 1 0 -15 0zM1824.02 79.84 a7.5 7.5 0 1 0 15 0 a7.5 7.5 0 1 0 -15 0zM1759.07 42.34 a7.5 7.5 0 1 0 15 0 a7.5 7.5 0 1 0 -15 0zM1759.07 -32.66 a7.5 7.5 0 1 0 15 0 a7.5 7.5 0 1 0 -15 0zM1888.98 267.34 a7.5 7.5 0 1 0 15 0 a7.5 7.5 0 1 0 -15 0zM1953.93 304.84 a7.5 7.5 0 1 0 15 0 a7.5 7.5 0 1 0 -15 0zM1953.93 379.84 a7.5 7.5 0 1 0 15 0 a7.5 7.5 0 1 0 -15 0zM1888.98 417.34 a7.5 7.5 0 1 0 15 0 a7.5 7.5 0 1 0 -15 0zM1824.02 379.84 a7.5 7.5 0 1 0 15 0 a7.5 7.5 0 1 0 -15 0zM1824.02 304.84 a7.5 7.5 0 1 0 15 0 a7.5 7.5 0 1 0 -15 0zM1824.02 604.84 a7.5 7.5 0 1 0 15 0 a7.5 7.5 0 1 0 -15 0zM1888.98 642.34 a7.5 7.5 0 1 0 15 0 a7.5 7.5 0 1 0 -15 0zM1888.98 717.34 a7.5 7.5 0 1 0 15 0 a7.5 7.5 0 1 0 -15 0zM1759.07 642.34 a7.5 7.5 0 1 0 15 0 a7.5 7.5 0 1 0 -15 0zM2018.89 267.34 a7.5 7.5 0 1 0 15 0 a7.5 7.5 0 1 0 -15 0zM2083.84 304.84 a7.5 7.5 0 1 0 15 0 a7.5 7.5 0 1 0 -15 0zM2083.84 379.84 a7.5 7.5 0 1 0 15 0 a7.5 7.5 0 1 0 -15 0zM2018.89 417.34 a7.5 7.5 0 1 0 15 0 a7.5 7.5 0 1 0 -15 0zM1953.93 604.84 a7.5 7.5 0 1 0 15 0 a7.5 7.5 0 1 0 -15 0zM2018.89 642.34 a7.5 7.5 0 1 0 15 0 a7.5 7.5 0 1 0 -15 0zM2018.89 717.34 a7.5 7.5 0 1 0 15 0 a7.5 7.5 0 1 0 -15 0zM1953.93 754.84 a7.5 7.5 0 1 0 15 0 a7.5 7.5 0 1 0 -15 0zM2018.89 942.34 a7.5 7.5 0 1 0 15 0 a7.5 7.5 0 1 0 -15 0zM2083.84 979.84 a7.5 7.5 0 1 0 15 0 a7.5 7.5 0 1 0 -15 0zM2083.84 1054.84 a7.5 7.5 0 1 0 15 0 a7.5 7.5 0 1 0 -15 0zM2018.89 1092.34 a7.5 7.5 0 1 0 15 0 a7.5 7.5 0 1 0 -15 0zM1953.93 1054.84 a7.5 7.5 0 1 0 15 0 a7.5 7.5 0 1 0 -15 0zM1953.93 979.84 a7.5 7.5 0 1 0 15 0 a7.5 7.5 0 1 0 -15 0zM2018.89 1167.34 a7.5 7.5 0 1 0 15 0 a7.5 7.5 0 1 0 -15 0zM1953.93 1204.84 a7.5 7.5 0 1 0 15 0 a7.5 7.5 0 1 0 -15 0zM1888.98 1167.34 a7.5 7.5 0 1 0 15 0 a7.5 7.5 0 1 0 -15 0zM1888.98 1092.34 a7.5 7.5 0 1 0 15 0 a7.5 7.5 0 1 0 -15 0zM2083.84 1204.84 a7.5 7.5 0 1 0 15 0 a7.5 7.5 0 1 0 -15 0zM2083.84 1279.84 a7.5 7.5 0 1 0 15 0 a7.5 7.5 0 1 0 -15 0zM2018.89 1317.34 a7.5 7.5 0 1 0 15 0 a7.5 7.5 0 1 0 -15 0zM1953.93 1279.84 a7.5 7.5 0 1 0 15 0 a7.5 7.5 0 1 0 -15 0zM2148.79 717.34 a7.5 7.5 0 1 0 15 0 a7.5 7.5 0 1 0 -15 0zM2213.75 754.84 a7.5 7.5 0 1 0 15 0 a7.5 7.5 0 1 0 -15 0zM2213.75 829.84 a7.5 7.5 0 1 0 15 0 a7.5 7.5 0 1 0 -15 0zM2148.79 867.34 a7.5 7.5 0 1 0 15 0 a7.5 7.5 0 1 0 -15 0zM2083.84 829.84 a7.5 7.5 0 1 0 15 0 a7.5 7.5 0 1 0 -15 0zM2083.84 754.84 a7.5 7.5 0 1 0 15 0 a7.5 7.5 0 1 0 -15 0zM2148.79 942.34 a7.5 7.5 0 1 0 15 0 a7.5 7.5 0 1 0 -15 0zM2213.75 979.84 a7.5 7.5 0 1 0 15 0 a7.5 7.5 0 1 0 -15 0zM2213.75 1054.84 a7.5 7.5 0 1 0 15 0 a7.5 7.5 0 1 0 -15 0zM2148.79 1092.34 a7.5 7.5 0 1 0 15 0 a7.5 7.5 0 1 0 -15 0zM2213.75 -70.16 a7.5 7.5 0 1 0 15 0 a7.5 7.5 0 1 0 -15 0zM2278.7 -32.66 a7.5 7.5 0 1 0 15 0 a7.5 7.5 0 1 0 -15 0zM2278.7 42.34 a7.5 7.5 0 1 0 15 0 a7.5 7.5 0 1 0 -15 0zM2213.75 79.84 a7.5 7.5 0 1 0 15 0 a7.5 7.5 0 1 0 -15 0zM2148.79 42.34 a7.5 7.5 0 1 0 15 0 a7.5 7.5 0 1 0 -15 0zM2148.79 -32.66 a7.5 7.5 0 1 0 15 0 a7.5 7.5 0 1 0 -15 0zM2343.66 79.84 a7.5 7.5 0 1 0 15 0 a7.5 7.5 0 1 0 -15 0zM2343.66 154.84 a7.5 7.5 0 1 0 15 0 a7.5 7.5 0 1 0 -15 0zM2278.7 192.34 a7.5 7.5 0 1 0 15 0 a7.5 7.5 0 1 0 -15 0zM2213.75 154.84 a7.5 7.5 0 1 0 15 0 a7.5 7.5 0 1 0 -15 0zM2213.75 379.84 a7.5 7.5 0 1 0 15 0 a7.5 7.5 0 1 0 -15 0zM2278.7 417.34 a7.5 7.5 0 1 0 15 0 a7.5 7.5 0 1 0 -15 0zM2278.7 492.34 a7.5 7.5 0 1 0 15 0 a7.5 7.5 0 1 0 -15 0zM2213.75 529.84 a7.5 7.5 0 1 0 15 0 a7.5 7.5 0 1 0 -15 0zM2148.79 492.34 a7.5 7.5 0 1 0 15 0 a7.5 7.5 0 1 0 -15 0zM2148.79 417.34 a7.5 7.5 0 1 0 15 0 a7.5 7.5 0 1 0 -15 0zM2278.7 867.34 a7.5 7.5 0 1 0 15 0 a7.5 7.5 0 1 0 -15 0zM2278.7 942.34 a7.5 7.5 0 1 0 15 0 a7.5 7.5 0 1 0 -15 0zM2343.66 -70.16 a7.5 7.5 0 1 0 15 0 a7.5 7.5 0 1 0 -15 0zM2408.61 -32.66 a7.5 7.5 0 1 0 15 0 a7.5 7.5 0 1 0 -15 0zM2408.61 42.34 a7.5 7.5 0 1 0 15 0 a7.5 7.5 0 1 0 -15 0zM2343.66 604.84 a7.5 7.5 0 1 0 15 0 a7.5 7.5 0 1 0 -15 0zM2408.61 642.34 a7.5 7.5 0 1 0 15 0 a7.5 7.5 0 1 0 -15 0zM2408.61 717.34 a7.5 7.5 0 1 0 15 0 a7.5 7.5 0 1 0 -15 0zM2343.66 754.84 a7.5 7.5 0 1 0 15 0 a7.5 7.5 0 1 0 -15 0zM2278.7 717.34 a7.5 7.5 0 1 0 15 0 a7.5 7.5 0 1 0 -15 0zM2278.7 642.34 a7.5 7.5 0 1 0 15 0 a7.5 7.5 0 1 0 -15 0zM2343.66 829.84 a7.5 7.5 0 1 0 15 0 a7.5 7.5 0 1 0 -15 0zM2408.61 867.34 a7.5 7.5 0 1 0 15 0 a7.5 7.5 0 1 0 -15 0zM2408.61 942.34 a7.5 7.5 0 1 0 15 0 a7.5 7.5 0 1 0 -15 0zM2343.66 979.84 a7.5 7.5 0 1 0 15 0 a7.5 7.5 0 1 0 -15 0z" fill="rgba(144, 154, 2, 1)"></path><path d="M45.78 209.96L89.09 234.96L89.09 284.96L45.78 309.96L2.48 284.96L2.48 234.96zM2.48 734.96L45.78 759.96L45.78 809.96L2.48 834.96L-40.82 809.96L-40.82 759.96zM45.78 959.96L89.09 984.96L89.09 1034.96L45.78 1059.96L2.48 1034.96L2.48 984.96zM2.48 1034.96L45.78 1059.96L45.78 1109.96L2.48 1134.96L-40.82 1109.96L-40.82 1059.96zM89.09 284.96L132.39 309.96L132.39 359.96L89.09 384.96L45.78 359.96L45.78 309.96zM89.09 434.96L132.39 459.96L132.39 509.96L89.09 534.96L45.78 509.96L45.78 459.96zM132.39 809.96L175.69 834.96L175.69 884.96L132.39 909.96L89.09 884.96L89.09 834.96zM218.99 809.96L262.3 834.96L262.3 884.96L218.99 909.96L175.69 884.96L175.69 834.96zM218.99 959.96L262.3 984.96L262.3 1034.96L218.99 1059.96L175.69 1034.96L175.69 984.96zM175.69 1034.96L218.99 1059.96L218.99 1109.96L175.69 1134.96L132.39 1109.96L132.39 1059.96zM262.3 134.96L305.6 159.96L305.6 209.96L262.3 234.96L218.99 209.96L218.99 159.96zM262.3 884.96L305.6 909.96L305.6 959.96L262.3 984.96L218.99 959.96L218.99 909.96zM305.6 959.96L348.9 984.96L348.9 1034.96L305.6 1059.96L262.3 1034.96L262.3 984.96zM305.6 1109.96L348.9 1134.96L348.9 1184.96L305.6 1209.96L262.3 1184.96L262.3 1134.96zM392.2 359.96L435.51 384.96L435.51 434.96L392.2 459.96L348.9 434.96L348.9 384.96zM348.9 584.96L392.2 609.96L392.2 659.96L348.9 684.96L305.6 659.96L305.6 609.96zM392.2 659.96L435.51 684.96L435.51 734.96L392.2 759.96L348.9 734.96L348.9 684.96zM478.81 59.96L522.11 84.96L522.11 134.96L478.81 159.96L435.51 134.96L435.51 84.96zM435.51 584.96L478.81 609.96L478.81 659.96L435.51 684.96L392.2 659.96L392.2 609.96zM522.11 -15.04L565.41 9.96L565.41 59.96L522.11 84.96L478.81 59.96L478.81 9.96zM565.41 809.96L608.72 834.96L608.72 884.96L565.41 909.96L522.11 884.96L522.11 834.96zM565.41 959.96L608.72 984.96L608.72 1034.96L565.41 1059.96L522.11 1034.96L522.11 984.96zM608.72 584.96L652.02 609.96L652.02 659.96L608.72 684.96L565.41 659.96L565.41 609.96zM608.72 734.96L652.02 759.96L652.02 809.96L608.72 834.96L565.41 809.96L565.41 759.96zM652.02 959.96L695.32 984.96L695.32 1034.96L652.02 1059.96L608.72 1034.96L608.72 984.96zM738.62 59.96L781.93 84.96L781.93 134.96L738.62 159.96L695.32 134.96L695.32 84.96zM738.62 209.96L781.93 234.96L781.93 284.96L738.62 309.96L695.32 284.96L695.32 234.96zM695.32 434.96L738.62 459.96L738.62 509.96L695.32 534.96L652.02 509.96L652.02 459.96zM695.32 584.96L738.62 609.96L738.62 659.96L695.32 684.96L652.02 659.96L652.02 609.96zM738.62 809.96L781.93 834.96L781.93 884.96L738.62 909.96L695.32 884.96L695.32 834.96zM695.32 884.96L738.62 909.96L738.62 959.96L695.32 984.96L652.02 959.96L652.02 909.96zM781.93 134.96L825.23 159.96L825.23 209.96L781.93 234.96L738.62 209.96L738.62 159.96zM825.23 659.96L868.53 684.96L868.53 734.96L825.23 759.96L781.93 734.96L781.93 684.96zM781.93 734.96L825.23 759.96L825.23 809.96L781.93 834.96L738.62 809.96L738.62 759.96zM781.93 1034.96L825.23 1059.96L825.23 1109.96L781.93 1134.96L738.62 1109.96L738.62 1059.96zM911.83 209.96L955.14 234.96L955.14 284.96L911.83 309.96L868.53 284.96L868.53 234.96zM868.53 884.96L911.83 909.96L911.83 959.96L868.53 984.96L825.23 959.96L825.23 909.96zM911.83 959.96L955.14 984.96L955.14 1034.96L911.83 1059.96L868.53 1034.96L868.53 984.96zM955.14 134.96L998.44 159.96L998.44 209.96L955.14 234.96L911.83 209.96L911.83 159.96zM998.44 1259.96L1041.74 1284.96L1041.74 1334.96L998.44 1359.96L955.14 1334.96L955.14 1284.96zM1041.74 -15.04L1085.04 9.96L1085.04 59.96L1041.74 84.96L998.44 59.96L998.44 9.96zM1085.04 59.96L1128.35 84.96L1128.35 134.96L1085.04 159.96L1041.74 134.96L1041.74 84.96zM1085.04 659.96L1128.35 684.96L1128.35 734.96L1085.04 759.96L1041.74 734.96L1041.74 684.96zM1041.74 734.96L1085.04 759.96L1085.04 809.96L1041.74 834.96L998.44 809.96L998.44 759.96zM1085.04 809.96L1128.35 834.96L1128.35 884.96L1085.04 909.96L1041.74 884.96L1041.74 834.96zM1085.04 959.96L1128.35 984.96L1128.35 1034.96L1085.04 1059.96L1041.74 1034.96L1041.74 984.96zM1258.25 509.96L1301.56 534.96L1301.56 584.96L1258.25 609.96L1214.95 584.96L1214.95 534.96zM1214.95 584.96L1258.25 609.96L1258.25 659.96L1214.95 684.96L1171.65 659.96L1171.65 609.96zM1258.25 809.96L1301.56 834.96L1301.56 884.96L1258.25 909.96L1214.95 884.96L1214.95 834.96zM1214.95 1034.96L1258.25 1059.96L1258.25 1109.96L1214.95 1134.96L1171.65 1109.96L1171.65 1059.96zM1258.25 1109.96L1301.56 1134.96L1301.56 1184.96L1258.25 1209.96L1214.95 1184.96L1214.95 1134.96zM1258.25 1259.96L1301.56 1284.96L1301.56 1334.96L1258.25 1359.96L1214.95 1334.96L1214.95 1284.96zM1301.56 -15.04L1344.86 9.96L1344.86 59.96L1301.56 84.96L1258.25 59.96L1258.25 9.96zM1344.86 1109.96L1388.16 1134.96L1388.16 1184.96L1344.86 1209.96L1301.56 1184.96L1301.56 1134.96zM1431.46 209.96L1474.77 234.96L1474.77 284.96L1431.46 309.96L1388.16 284.96L1388.16 234.96zM1388.16 284.96L1431.46 309.96L1431.46 359.96L1388.16 384.96L1344.86 359.96L1344.86 309.96zM1431.46 1109.96L1474.77 1134.96L1474.77 1184.96L1431.46 1209.96L1388.16 1184.96L1388.16 1134.96zM1431.46 1259.96L1474.77 1284.96L1474.77 1334.96L1431.46 1359.96L1388.16 1334.96L1388.16 1284.96zM1474.77 584.96L1518.07 609.96L1518.07 659.96L1474.77 684.96L1431.46 659.96L1431.46 609.96zM1474.77 734.96L1518.07 759.96L1518.07 809.96L1474.77 834.96L1431.46 809.96L1431.46 759.96zM1474.77 1184.96L1518.07 1209.96L1518.07 1259.96L1474.77 1284.96L1431.46 1259.96L1431.46 1209.96zM1561.37 -15.04L1604.67 9.96L1604.67 59.96L1561.37 84.96L1518.07 59.96L1518.07 9.96zM1604.67 59.96L1647.98 84.96L1647.98 134.96L1604.67 159.96L1561.37 134.96L1561.37 84.96zM1604.67 209.96L1647.98 234.96L1647.98 284.96L1604.67 309.96L1561.37 284.96L1561.37 234.96zM1604.67 359.96L1647.98 384.96L1647.98 434.96L1604.67 459.96L1561.37 434.96L1561.37 384.96zM1561.37 434.96L1604.67 459.96L1604.67 509.96L1561.37 534.96L1518.07 509.96L1518.07 459.96zM1561.37 884.96L1604.67 909.96L1604.67 959.96L1561.37 984.96L1518.07 959.96L1518.07 909.96zM1561.37 1034.96L1604.67 1059.96L1604.67 1109.96L1561.37 1134.96L1518.07 1109.96L1518.07 1059.96zM1604.67 1109.96L1647.98 1134.96L1647.98 1184.96L1604.67 1209.96L1561.37 1184.96L1561.37 1134.96zM1647.98 -15.04L1691.28 9.96L1691.28 59.96L1647.98 84.96L1604.67 59.96L1604.67 9.96zM1691.28 209.96L1734.58 234.96L1734.58 284.96L1691.28 309.96L1647.98 284.96L1647.98 234.96zM1647.98 284.96L1691.28 309.96L1691.28 359.96L1647.98 384.96L1604.67 359.96L1604.67 309.96zM1691.28 359.96L1734.58 384.96L1734.58 434.96L1691.28 459.96L1647.98 434.96L1647.98 384.96zM1691.28 809.96L1734.58 834.96L1734.58 884.96L1691.28 909.96L1647.98 884.96L1647.98 834.96zM1647.98 1034.96L1691.28 1059.96L1691.28 1109.96L1647.98 1134.96L1604.67 1109.96L1604.67 1059.96zM1734.58 -15.04L1777.88 9.96L1777.88 59.96L1734.58 84.96L1691.28 59.96L1691.28 9.96zM1777.88 209.96L1821.19 234.96L1821.19 284.96L1777.88 309.96L1734.58 284.96L1734.58 234.96zM1734.58 284.96L1777.88 309.96L1777.88 359.96L1734.58 384.96L1691.28 359.96L1691.28 309.96zM1734.58 884.96L1777.88 909.96L1777.88 959.96L1734.58 984.96L1691.28 959.96L1691.28 909.96zM1777.88 959.96L1821.19 984.96L1821.19 1034.96L1777.88 1059.96L1734.58 1034.96L1734.58 984.96zM1821.19 -15.04L1864.49 9.96L1864.49 59.96L1821.19 84.96L1777.88 59.96L1777.88 9.96zM1821.19 134.96L1864.49 159.96L1864.49 209.96L1821.19 234.96L1777.88 209.96L1777.88 159.96zM1864.49 509.96L1907.79 534.96L1907.79 584.96L1864.49 609.96L1821.19 584.96L1821.19 534.96zM1951.09 509.96L1994.4 534.96L1994.4 584.96L1951.09 609.96L1907.79 584.96L1907.79 534.96zM1951.09 809.96L1994.4 834.96L1994.4 884.96L1951.09 909.96L1907.79 884.96L1907.79 834.96zM1994.4 284.96L2037.7 309.96L2037.7 359.96L1994.4 384.96L1951.09 359.96L1951.09 309.96zM2037.7 359.96L2081 384.96L2081 434.96L2037.7 459.96L1994.4 434.96L1994.4 384.96zM2037.7 509.96L2081 534.96L2081 584.96L2037.7 609.96L1994.4 584.96L1994.4 534.96zM1994.4 884.96L2037.7 909.96L2037.7 959.96L1994.4 984.96L1951.09 959.96L1951.09 909.96zM2037.7 959.96L2081 984.96L2081 1034.96L2037.7 1059.96L1994.4 1034.96L1994.4 984.96zM1994.4 1034.96L2037.7 1059.96L2037.7 1109.96L1994.4 1134.96L1951.09 1109.96L1951.09 1059.96zM2081 134.96L2124.3 159.96L2124.3 209.96L2081 234.96L2037.7 209.96L2037.7 159.96zM2081 284.96L2124.3 309.96L2124.3 359.96L2081 384.96L2037.7 359.96L2037.7 309.96zM2081 1184.96L2124.3 1209.96L2124.3 1259.96L2081 1284.96L2037.7 1259.96L2037.7 1209.96zM2167.61 -15.04L2210.91 9.96L2210.91 59.96L2167.61 84.96L2124.3 59.96L2124.3 9.96zM2210.91 359.96L2254.21 384.96L2254.21 434.96L2210.91 459.96L2167.61 434.96L2167.61 384.96zM2167.61 734.96L2210.91 759.96L2210.91 809.96L2167.61 834.96L2124.3 809.96L2124.3 759.96zM2254.21 284.96L2297.51 309.96L2297.51 359.96L2254.21 384.96L2210.91 359.96L2210.91 309.96zM2297.51 359.96L2340.81 384.96L2340.81 434.96L2297.51 459.96L2254.21 434.96L2254.21 384.96zM2297.51 509.96L2340.81 534.96L2340.81 584.96L2297.51 609.96L2254.21 584.96L2254.21 534.96zM2254.21 584.96L2297.51 609.96L2297.51 659.96L2254.21 684.96L2210.91 659.96L2210.91 609.96zM2254.21 884.96L2297.51 909.96L2297.51 959.96L2254.21 984.96L2210.91 959.96L2210.91 909.96zM2340.82 -15.04L2384.12 9.96L2384.12 59.96L2340.82 84.96L2297.51 59.96L2297.51 9.96zM2384.12 359.96L2427.42 384.96L2427.42 434.96L2384.12 459.96L2340.82 434.96L2340.82 384.96zM2340.82 584.96L2384.12 609.96L2384.12 659.96L2340.82 684.96L2297.51 659.96L2297.51 609.96zM2384.12 809.96L2427.42 834.96L2427.42 884.96L2384.12 909.96L2340.82 884.96L2340.82 834.96zM2340.82 884.96L2384.12 909.96L2384.12 959.96L2340.82 984.96L2297.51 959.96L2297.51 909.96zM2384.12 1259.96L2427.42 1284.96L2427.42 1334.96L2384.12 1359.96L2340.82 1334.96L2340.82 1284.96zM2427.42 584.96L2470.72 609.96L2470.72 659.96L2427.42 684.96L2384.12 659.96L2384.12 609.96zM2427.42 884.96L2470.72 909.96L2470.72 959.96L2427.42 984.96L2384.12 959.96L2384.12 909.96zM2427.42 1034.96L2470.72 1059.96L2470.72 1109.96L2427.42 1134.96L2384.12 1109.96L2384.12 1059.96z" stroke="rgba(232, 214, 0, 1)" stroke-width="2"></path></g><defs><mask id="SvgjsMask1233"><rect width="2440" height="1280" fill="#ffffff"></rect></mask></defs></svg>